<?xml version="1.0" encoding="UTF-8"?>
<svg xmlns="http://www.w3.org/2000/svg" xmlns:xlink="http://www.w3.org/1999/xlink" version="1.1" id="Capa_1" x="0px" y="0px" viewBox="0 0 512.549 512.549" style="enable-background:new 0 0 512.549 512.549;" xml:space="preserve" width="512" height="512">
<g>
	<path style="fill:none;stroke:#000000;stroke-width:15;stroke-miterlimit:10;" d="M393.048,512.549v-65.965&#10;&#9;&#9;c-23.381,15.136-48.438,23.486-67.339,23.486s-43.958-8.35-67.339-23.486v65.734"/>
	<path style="fill:none;stroke:#000000;stroke-width:15;stroke-miterlimit:10;" d="M170.831,289.381&#10;&#9;&#9;c-14.046,5.311-24.036,18.878-24.036,34.783v0c0,20.535,16.647,37.182,37.182,37.182h9.964"/>
	<path style="fill:none;stroke:#000000;stroke-width:15;stroke-miterlimit:10;" d="M457.477,361.346h8.926&#10;&#9;&#9;c20.535,0,37.182-16.647,37.182-37.182v0c0-15.579-9.585-28.911-23.176-34.444"/>
	<path style="fill:none;stroke:#000000;stroke-width:15;stroke-miterlimit:10;" d="M461.569,318.47&#10;&#9;&#9;c22.586-29.093,36.033-59.253,36.033-98.937c0-61.626-32.437-104.433-81.163-134.775C409.459,40.97,371.534,7.5,325.78,7.5&#10;&#9;&#9;c-45.72,0-83.621,33.42-90.642,77.16c-48.813,30.324-81.321,73.181-81.321,134.874c0,39.683,13.447,69.843,36.033,98.937"/>
	<path style="fill:none;stroke:#000000;stroke-width:15;stroke-miterlimit:10;" d="M445.522,391.933&#10;&#9;&#9;c9.296-16.751,15.005-35.775,15.005-56.654v-54.328v-41.798c0-39.998-32.425-72.423-72.423-72.423h0&#10;&#9;&#9;c-16.373,15.145-38.262,24.412-62.325,24.412c-7.932,0-25.293,0-45.004,0c-14.693,0-28.563,3.526-40.81,9.777"/>
	<path style="fill:none;stroke:#000000;stroke-width:15;stroke-miterlimit:10;" d="M227.092,208.928&#10;&#9;&#9;c-21.972,16.386-36.2,42.578-36.2,72.093v54.258c0,81.534,87.062,134.791,134.818,134.791c32.2,0,82.27-24.212,111.472-64.98"/>
	<path style="fill:none;stroke:#000000;stroke-width:15;stroke-miterlimit:10;" d="M416.452,84.756&#10;&#9;&#9;c0.756,4.744,1.149,9.608,1.149,14.565c0,26.649-11.353,50.647-29.486,67.42"/>
	<path style="fill:none;stroke:#000000;stroke-width:15;stroke-miterlimit:10;" d="M235.131,84.65&#10;&#9;&#9;c26.301-16.338,57.338-25.774,90.578-25.774"/>
	<path style="fill:none;stroke:#000000;stroke-width:15;stroke-miterlimit:10;" d="M290.086,299.376h-39.958&#10;&#9;&#9;c-6.617,0-12.805-3.272-16.53-8.741l-5.22-7.664"/>
	<path style="fill:none;stroke:#000000;stroke-width:15;stroke-miterlimit:10;" d="M360.378,299.376h39.958&#10;&#9;&#9;c6.617,0,12.805-3.272,16.53-8.741l5.22-7.664"/>
	<path style="fill:none;stroke:#000000;stroke-width:15;stroke-miterlimit:10;" d="M295.252,383.433&#10;&#9;&#9;c19.652,4.605,40.101,4.614,59.756,0.028l0.119-0.028"/>
	<path style="fill:none;stroke:#000000;stroke-width:15;stroke-miterlimit:10;" d="M123.863,391.818L144.289,392&#10;&#9;&#9;c7.732,0.003,13.998,6.273,13.995,14.005l-0.012,32c-0.003,7.732-6.273,13.998-14.005,13.995l-90.872-0.809l0.023-60l54.594,0.486"/>
	
		<line style="fill:none;stroke:#000000;stroke-width:15;stroke-miterlimit:10;" x1="94.393" y1="451.207" x2="94.416" y2="391.207"/>
	
		<line style="fill:none;stroke:#000000;stroke-width:15;stroke-miterlimit:10;" x1="53.425" y1="368.878" x2="53.384" y2="473.503"/>
	
		<line style="fill:none;stroke:#000000;stroke-width:15;stroke-miterlimit:10;" x1="187.057" y1="421.017" x2="257.486" y2="421.017"/>
	
		<rect x="157.664" y="406.937" transform="matrix(-3.845592e-04 1 -1 -3.845592e-04 594.0543 248.8214)" style="fill:none;stroke:#000000;stroke-width:15;stroke-miterlimit:10;" width="30" height="28.774"/>
	
		<rect x="15.917" y="398.558" transform="matrix(-3.845592e-04 1 -1 -3.845592e-04 451.4245 389.7407)" style="fill:none;stroke:#000000;stroke-width:15;stroke-miterlimit:10;" width="30" height="43.875"/>
	<line style="fill:none;stroke:#000000;stroke-width:15;stroke-miterlimit:10;" x1="8.995" y1="379.738" x2="8.964" y2="460.613"/>
	<g>
		
			<line style="fill:none;stroke:#000000;stroke-width:15;stroke-miterlimit:10;" x1="209.711" y1="359.359" x2="223.737" y2="364.677"/>
		<path style="fill:none;stroke:#000000;stroke-width:15;stroke-miterlimit:10;" d="M237.499,370.634&#10;&#9;&#9;&#9;c4.51,2.159,8.932,4.5,13.267,6.992"/>
		<path style="fill:none;stroke:#000000;stroke-width:15;stroke-miterlimit:10;" d="M263.487,385.568&#10;&#9;&#9;&#9;c4.152,2.787,8.174,5.761,12.125,8.825"/>
		<path style="fill:none;stroke:#000000;stroke-width:15;stroke-miterlimit:10;" d="M287.079,404.058&#10;&#9;&#9;&#9;c3.68,3.383,7.309,6.829,10.73,10.476"/>
		<path style="fill:none;stroke:#000000;stroke-width:15;stroke-miterlimit:10;" d="M307.723,425.785&#10;&#9;&#9;&#9;c3.157,3.876,6.183,7.863,9.001,11.993"/>
		
			<line style="fill:none;stroke:#000000;stroke-width:15;stroke-miterlimit:10;" x1="324.702" y1="450.474" x2="332.023" y2="463.566"/>
	</g>
</g>















</svg>
