<svg height="512pt" viewBox="0 -119 512.07221 512" width="512pt" xmlns="http://www.w3.org/2000/svg"><path d="m503.066406 120.128906c12.195313-31.078125 15.359375-73.703125-12.175781-100.097656-26.25-25.207031-72.425781-26.546875-102.582031-4.207031-30.148438-22.339844-76.328125-21-102.570313 4.199219-20.351562 19.5-23.894531 47.785156-19.488281 73.828124-3.414062 0-6.707031.078126-10.242188.078126-3.53125 0-6.824218-.058594-10.238281-.078126 4.429688-26 .851563-54.328124-19.480469-73.820312-26.25-25.207031-72.425781-26.546875-102.582031-4.207031-30.148437-22.339844-76.320312-21-102.570312 4.199219-27.503907 26.402343-24.3125 69.027343-12.117188 100.105468 3.5625 8.433594 7.84375 16.550782 12.800781 24.25l.410157.75h-13.652344c-4.714844 0-8.5351562 3.820313-8.5351562 8.535156 0 4.710938 3.8203122 8.53125 8.5351562 8.53125h23.082031c4.996094 9.90625 8.289063 20.578126 9.742188 31.574219 1.402344 15.601563 4.027344 31.070313 7.859375 46.261719 2.980469 11.089844 9.191406 34.132812 29.679687 34.132812 6.589844 0 24.082032 0 35.347656-80.785156 1.875-13.289062 6.59375-15.097656 9.488282-15.550781 2.890625.453125 7.609375 2.261719 9.488281 15.53125 11.261719 80.804687 28.757813 80.804687 35.34375 80.804687 20.480469 0 26.703125-23.042968 29.664063-34.023437 3.839843-15.21875 6.476562-30.714844 7.882812-46.34375 1.457031-11.011719 4.761719-21.695313 9.78125-31.601563h80.289062c4.996094 9.90625 8.289063 20.578126 9.746094 31.574219 1.398438 15.601563 4.027344 31.070313 7.859375 46.261719 2.976563 11.089844 9.1875 34.132812 29.675781 34.132812 6.589844 0 24.082032 0 35.347657-80.785156 1.875-13.289062 6.59375-15.097656 9.488281-15.550781 2.894531.453125 7.613281 2.261719 9.488281 15.53125 11.265625 80.804687 28.757813 80.804687 35.347657 80.804687 20.476562 0 26.699218-23.042968 29.660156-34.023437 3.839844-15.21875 6.476562-30.714844 7.882812-46.34375 1.445313-11.007813 4.742188-21.691406 9.746094-31.601563h23.039062c4.714844 0 8.535157-3.820312 8.535157-8.53125 0-4.714843-3.820313-8.535156-8.535157-8.535156h-13.652343l.4375-.75c4.945312-7.703125 9.21875-15.816406 12.773437-24.25zm-247.023437-9.132812c4.90625 0 9.558593-.066406 14.308593-.109375.984376 3.164062 2.03125 6.269531 3.203126 9.242187 3.558593 8.433594 7.84375 16.550782 12.796874 24.25l.410157.75h-61.4375l.433593-.75c4.957032-7.699218 9.238282-15.816406 12.800782-24.25 1.167968-2.980468 2.21875-6.078125 3.199218-9.242187 4.726563.042969 9.378907.109375 14.285157.109375zm-66.839844 80.804687c-1.332031 14.761719-3.804687 29.402344-7.398437 43.78125-2.800782 10.386719-6.359376 21.460938-12.554688 21.582031-2.953125-1.457031-12.125-16.214843-19.089844-66.234374-3.257812-23.042969-15.613281-29.140626-25.410156-30.234376-.328125.011719-.652344.039063-.972656.085938-.328125-.046875-.660156-.074219-.992188-.085938-9.796875 1.09375-22.183594 7.21875-25.410156 30.25-6.964844 50.023438-16.136719 64.761719-18.441406 66.097657-6.828125 0-10.402344-11.089844-13.21875-21.527344-3.582032-14.34375-6.046875-28.945313-7.363282-43.675781-1.90625-14.53125-6.484374-28.589844-13.5-41.460938-.289062-.5625-.503906-1.109375-.8125-1.707031-2.394531-4.488281-5.007812-8.816406-7.617187-13.125-4.445313-6.875-8.296875-14.113281-11.511719-21.640625-9.703125-24.746094-13.398437-60.945312 8.113282-81.542969 21.511718-20.601562 61.96875-20.226562 85.011718.800781.351563.253907.722656.476563 1.109375.675782.460938.328125.949219.613281 1.464844.851562.511719.179688 1.035156.308594 1.570313.382813 1.046874.320312 2.164062.320312 3.210937 0 .53125-.074219 1.058594-.203125 1.570313-.382813.511718-.238281 1.003906-.523437 1.464843-.851562.386719-.199219.757813-.421875 1.109375-.675782 23.042969-21.015624 63.539063-21.410156 85.019532-.792968 16.144531 15.460937 18.082031 39.714844 13.941406 61.320312-24.363282-.425781-46.472656-1.390625-66.3125-2.652344v-22.707031c0-4.714843-3.820313-8.535156-8.53125-8.535156h-59.742188c-4.714844 0-8.535156 3.820313-8.535156 8.535156v15.359375c-26.308594-3.492187-40.488281-6.546875-40.8125-6.613281-3-.726563-6.15625.226563-8.257812 2.484375-2.101563 2.261719-2.816407 5.480469-1.871094 8.417969.945312 2.941406 3.398437 5.140625 6.425781 5.753906 1.378906.308594 16.605469 3.617187 44.515625 7.261719v27.066406c0 4.714844 3.820312 8.535156 8.535156 8.535156h59.734375c4.710938 0 8.53125-3.820312 8.53125-8.535156v-19.890625c18.542969 1.152344 39.152344 2.023437 61.664063 2.476563-.394532 1.089843-.777344 2.191406-1.1875 3.242187-3.21875 7.527344-7.066406 14.765625-11.511719 21.640625-2.613281 4.308594-5.222656 8.632812-7.613281 13.125-.296875.554688-.511719 1.082031-.792969 1.628906v.09375c-7.035156 12.851563-11.621094 26.894532-13.53125 41.421875zm-86.761719-88.765625c12.453125 1.398438 26.632813 2.773438 42.667969 3.984375v12.511719h-42.667969zm0-17.253906v-8.917969h42.667969v12.960938c-16.050781-1.226563-30.300781-2.625-42.667969-4.042969zm351.292969 106.019531c-1.328125 14.761719-3.800781 29.402344-7.398437 43.78125-2.796876 10.386719-6.355469 21.460938-12.550782 21.582031-2.953125-1.457031-12.128906-16.214843-19.089844-66.234374-3.261718-23.042969-15.617187-29.140626-25.414062-30.234376-.324219.011719-.648438.039063-.972656.085938-.328125-.046875-.65625-.074219-.988282-.085938-9.796874 1.09375-22.1875 7.21875-25.414062 30.25-6.960938 50.023438-16.136719 64.761719-18.4375 66.097657-6.828125 0-10.402344-11.089844-13.21875-21.527344-3.585938-14.34375-6.046875-28.945313-7.367188-43.675781-1.90625-14.53125-6.480468-28.589844-13.5-41.460938-.289062-.5625-.5-1.109375-.808593-1.707031-2.398438-4.488281-5.007813-8.816406-7.621094-13.125-4.441406-6.875-8.292969-14.113281-11.511719-21.640625-.410156-1.050781-.792968-2.148438-1.183594-3.242188 22.5-.453124 43.117188-1.324218 61.660157-2.476562v19.875c0 4.714844 3.820312 8.535156 8.535156 8.535156h59.730469c4.714844 0 8.535156-3.820312 8.535156-8.535156v-27.074219c27.910156-3.644531 43.136719-6.957031 44.519531-7.261719 3.023438-.617187 5.480469-2.816406 6.421875-5.753906.945313-2.9375.230469-6.15625-1.871094-8.417968-2.097656-2.261719-5.257812-3.210938-8.257812-2.488282-.324219.070313-14.503906 3.125-40.8125 6.617188v-15.351563c0-4.714843-3.820312-8.535156-8.535156-8.535156h-59.742188c-4.710937 0-8.53125 3.820313-8.53125 8.535156v22.6875c-19.839844 1.265625-41.949218 2.226563-66.3125 2.65625-4.140625-21.609375-2.203125-45.867187 13.953125-61.332031 21.449219-20.589844 61.957031-20.222656 85.007813.804688.351562.253906.726562.480468 1.117187.671874.453125.335938.9375.621094 1.449219.855469.515625.179688 1.046875.308594 1.589844.382813 1.035156.320312 2.144531.320312 3.183594 0 .539062-.070313 1.070312-.199219 1.585937-.382813.511719-.234375.996094-.523437 1.449219-.855469.394531-.195312.769531-.421874 1.128906-.679687 23.039062-21.019531 63.539062-21.410156 85.015625-.796875 21.480469 20.617188 17.808594 56.800781 8.105469 81.539062-3.214844 7.523438-7.066406 14.765626-11.511719 21.640626-2.609375 4.308593-5.21875 8.632812-7.609375 13.121093-.300781.554688-.511719 1.085938-.792969 1.632813l-.042969.09375c-7.019531 12.855468-11.597656 26.902344-13.492187 41.429687zm-44.089844-106.019531c-12.367187 1.417969-26.617187 2.816406-42.667969 4.042969v-12.960938h42.667969zm0 17.253906v16.496094h-42.667969v-12.511719c16.035157-1.210937 30.214844-2.585937 42.667969-3.984375zm0 0"/></svg>