<svg id="Layer_1" height="512" viewBox="0 0 90 90" width="512" xmlns="http://www.w3.org/2000/svg"><path d="m61.516 21.046c.984 0 1.896.26 2.766.582.871.319 1.656.714 2.709.714s1.834-.395 2.703-.714c.869-.322 1.787-.582 2.771-.582 1.65 0 3.035 1.183 3.807 3.068.775 1.891.818 4.375-.271 6.542-.516 1.02-.953 1.765-1.379 2.551-.709 1.298-1.818 1.641-2.887 1.641h-9.488c-1.068 0-2.184-.343-2.887-1.641-.426-.786-.859-1.531-1.375-2.551-1.088-2.167-1.051-4.651-.281-6.542.776-1.885 2.161-3.068 3.812-3.068zm-21.911 0c.984 0 1.901.26 2.771.582.87.319 1.651.714 2.703.714s1.839-.395 2.708-.714c.869-.322 1.787-.582 2.766-.582 1.65 0 3.037 1.183 3.807 3.068.777 1.891.813 4.375-.275 6.542-.51 1.02-.947 1.765-1.375 2.551-.703 1.298-1.818 1.641-2.885 1.641h-9.485c-1.073 0-2.188-.343-2.891-1.641-.426-.786-.864-1.531-1.375-2.551-1.095-2.167-1.047-4.651-.276-6.542.77-1.885 2.161-3.068 3.807-3.068zm-21.968 0c.984 0 1.9.26 2.771.582.869.319 1.65.714 2.703.714 1.052 0 1.838-.395 2.708-.714.871-.322 1.787-.582 2.767-.582 1.65 0 3.036 1.183 3.807 3.068.776 1.891.823 4.375-.271 6.542-.51 1.02-.943 1.765-1.369 2.551-.704 1.298-1.83 1.641-2.896 1.641h-9.487c-1.072 0-2.181-.343-2.886-1.641-.432-.786-.864-1.531-1.374-2.551-1.088-2.167-1.052-4.651-.281-6.542.771-1.885 2.161-3.068 3.808-3.068zm0-2.085c-2.646 0-4.724 1.923-5.729 4.366-1 2.443-1.038 5.511.344 8.26.541 1.078.995 1.859 1.4 2.609 1.1 2.026 3.104 2.734 4.719 2.734h9.485c1.609 0 3.619-.708 4.719-2.734.604-1.088 1.072-1.948 1.525-2.886.448.995 1.046 2.026 1.521 2.886 1.099 2.026 3.104 2.734 4.719 2.734h9.485c1.609 0 3.619-.708 4.719-2.734.582-1.058 1.051-1.927 1.488-2.828.453.973 1.031 1.989 1.5 2.828 1.094 2.026 3.105 2.734 4.715 2.734h9.488c1.609 0 3.621-.708 4.715-2.734.41-.75.863-1.531 1.406-2.609 1.375-2.75 1.344-5.817.344-8.26-1-2.442-3.084-4.366-5.734-4.366-1.355 0-2.527.361-3.484.713-.891.33-1.568.601-1.984.688-.418-.088-1.094-.355-1.99-.688-.959-.353-2.135-.713-3.49-.713-2.457 0-4.41 1.658-5.484 3.844-1.066-2.187-3.02-3.844-5.479-3.844-1.354 0-2.531.361-3.49.713-.895.333-1.567.601-1.984.688-.416-.088-1.099-.359-1.99-.688-.957-.353-2.13-.713-3.484-.713-2.473 0-4.443 1.683-5.511 3.891-1.063-2.208-3.036-3.891-5.509-3.891-1.355 0-2.521.361-3.485.713-.891.33-1.568.601-1.984.688-.417-.088-1.093-.355-1.983-.688-.962-.352-2.145-.713-3.498-.713z"/><path d="m66.996 46.853h8.359c-.391.854-1.027 2.484-1.225 3.651-.506 2.974-.225 4.38-1.803 7.474-.641 1.254-1.316 1.453-1.65 1.417-.334-.037-.615-.229-.615-.948v-3.031c0-1-.156-1.902-.676-2.635-.521-.734-1.443-1.152-2.391-1.152-.953 0-1.881.418-2.402 1.152-.52.732-.672 1.635-.672 2.635v3.031c0 .719-.285.911-.619.948-.334.036-1.01-.163-1.65-1.417-1.578-3.094-1.277-4.506-1.809-7.474-.238-1.36-.682-2.584-1.213-3.636 2.772-.046 5.579-.015 8.366-.015zm-52.245 0h8.364c2.781.01 5.599-.031 8.364.016-.541 1.136-1.052 2.588-1.228 3.636-.496 2.974-.224 4.38-1.797 7.474-.642 1.254-1.322 1.453-1.656 1.417-.328-.037-.609-.229-.609-.948v-3.031c0-1-.162-1.902-.683-2.635-.521-.734-1.438-1.152-2.391-1.152-.948 0-1.88.418-2.401 1.152-.52.732-.672 1.635-.672 2.635v3.031c0 .719-.287.911-.621.948-.328.036-1.009-.163-1.65-1.417-1.573-3.094-1.276-4.506-1.801-7.474-.24-1.366-.699-2.606-1.219-3.652zm-4.464-.49c.911-.114 2.121.558 2.667 1.594.552 1.043.755 1.646.964 2.891.458 2.734.26 4.652 2 8.068.895 1.756 2.333 2.698 3.733 2.546 1.401-.155 2.469-1.468 2.469-3.015v-3.031c0-.761.121-1.261.292-1.433.5-.5.989-.412 1.395 0 .172.172.297.672.297 1.433v3.031c0 1.547 1.073 2.859 2.475 3.015 1.4.152 2.833-.79 3.728-2.546 1.74-3.416 1.543-5.334 2-8.068.209-1.266.422-1.869.896-2.729.188-.329.319-.688.371-1.053 1.552.256 3.167.75 3.921 1.505 1.098 1.101 2.032 2.079 3.203 2.813 1.172.734 2.573 1.172 4.355 1.172 1.787 0 3.193-.438 4.365-1.172s2.098-1.713 3.197-2.813c.756-.755 2.359-1.243 3.912-1.505.057.365.191.724.375 1.053.473.859.682 1.463.895 2.729.453 2.734.262 4.652 2 8.068.896 1.756 2.334 2.698 3.734 2.546 1.402-.155 2.465-1.468 2.465-3.015v-3.031c0-.761.125-1.261.297-1.433.5-.5 1.051-.38 1.395 0 .162.178.297.672.297 1.433v3.031c0 1.547 1.063 2.859 2.465 3.015 1.4.152 2.838-.79 3.734-2.546 1.738-3.416 1.547-5.334 2-8.068.213-1.266.426-1.869 1.094-2.968.666-1.099 1.676-1.558 2.473-1.517 1.084.053 1.449.678 1.449 1.432v17.047c0 1.09-.152 2.178-.6 2.887-.453.703-1.135 1.209-2.9 1.209h-65.36c-1.765 0-2.453-.506-2.901-1.209-.454-.709-.599-1.797-.599-2.887v-17.048c-.001-1.062.639-1.327 1.447-1.431zm53.375-3.984h6.65c.5 0 .771.109.938.234.172.118.293.285.371.614l.391 1.547h-10.043l.396-1.547c.084-.329.193-.496.359-.614.167-.124.438-.234.938-.234zm-43.875 0h6.651c.495 0 .776.109.942.234.167.118.281.285.365.614l.386 1.547h-10.037l.391-1.547c.084-.329.199-.496.366-.614.166-.124.436-.234.936-.234zm0-2.079c-.822 0-1.578.204-2.172.642-.593.438-.979 1.083-1.15 1.776l-.516 2.057h-1.287c-.5 0-1 .208-1.38.531-.917-.684-1.984-1.036-3.021-1.021-.875.009-1.755.285-2.427.895-.672.614-1.079 1.558-1.079 2.614v17.047c0 1.24.115 2.721.934 4 .812 1.281 2.396 2.178 4.65 2.178h65.36c2.25 0 3.832-.896 4.645-2.178.818-1.279.934-2.76.934-4v-17.047c0-1.057-.406-2-1.078-2.614-.668-.609-1.547-.886-2.428-.895-1.021-.016-2.078.333-2.979.995-.381-.309-.871-.506-1.355-.506h-1.285l-.516-2.057c-.172-.693-.559-1.339-1.152-1.776s-1.348-.641-2.172-.641h-6.65c-.818 0-1.572.204-2.166.642-.6.438-.98 1.083-1.152 1.776l-.516 2.057c-.469-.021-.973.015-1.426.025-2.168.041-5.324.371-7.262 2.303-1.109 1.109-1.953 1.974-2.832 2.525-.875.547-1.781.85-3.255.85-1.468 0-2.37-.303-3.246-.85-.88-.552-1.733-1.416-2.843-2.525-1.938-1.938-5.104-2.24-7.267-2.309-.463-.014-.952-.02-1.421-.02l-.516-2.057c-.176-.693-.558-1.339-1.15-1.776-.599-.438-1.355-.642-2.172-.642h-6.652z"/></svg>