<svg id="Outline" height="512" viewBox="0 0 128 128" width="512" xmlns="http://www.w3.org/2000/svg"><path d="m74.771 59.538a1.5 1.5 0 0 1 -1.052-2.569c1.984-1.951 5.3-2.113 8.254-.4a1.5 1.5 0 1 1 -1.506 2.6c-1.424-.827-3.486-1.2-4.643-.056a1.5 1.5 0 0 1 -1.053.425z"/><path d="m44.4 48.182a12.268 12.268 0 0 1 9.459-1.491 1.373 1.373 0 0 1 .971 1.535 1.377 1.377 0 0 1 -1.47 1.174 20.8 20.8 0 0 0 -6.793.406c-1.568.48-2.238.143-2.519-.3a.992.992 0 0 1 .352-1.324z"/><path d="m84.153 48.182a12.267 12.267 0 0 0 -9.459-1.491 1.372 1.372 0 0 0 -.97 1.535 1.376 1.376 0 0 0 1.467 1.174 20.8 20.8 0 0 1 6.792.406c1.568.48 2.239.143 2.519-.3a.992.992 0 0 0 -.349-1.324z"/><path d="m53.17 59.538a1.493 1.493 0 0 1 -1.052-.431c-1.158-1.139-3.219-.771-4.645.056a1.5 1.5 0 0 1 -1.5-2.6c2.952-1.712 6.27-1.549 8.253.4a1.5 1.5 0 0 1 -1.052 2.569z"/><path d="m73.922 69.053a5.741 5.741 0 0 0 -4.331-1.859h-11.724a5.741 5.741 0 0 0 -4.331 1.859 4.011 4.011 0 0 0 -.981 3.245c.994 6.678 5.067 10.508 11.174 10.508s10.18-3.83 11.171-10.506a4.013 4.013 0 0 0 -.978-3.247zm-10.193 10.753a7.283 7.283 0 0 1 -6.729-3.506h13.462a7.281 7.281 0 0 1 -6.733 3.506zm7.92-6.506h-15.84c-.112-.46-.212-.936-.288-1.445a1.036 1.036 0 0 1 .288-.843 2.758 2.758 0 0 1 2.058-.818h11.724a2.758 2.758 0 0 1 2.058.818 1.037 1.037 0 0 1 .288.844c-.076.508-.176.984-.288 1.444z"/><path d="m34.29 100.966a2.242 2.242 0 0 1 -1.967-1.166l-1.393-2.547a4.23 4.23 0 0 0 -1.692-1.691l-2.546-1.393a2.243 2.243 0 0 1 0-3.936l2.546-1.393a4.239 4.239 0 0 0 1.692-1.692l1.392-2.548a2.242 2.242 0 0 1 3.935 0l1.393 2.545a4.239 4.239 0 0 0 1.692 1.692l2.546 1.392a2.243 2.243 0 0 1 0 3.937l-2.545 1.393a4.23 4.23 0 0 0 -1.692 1.691l-1.392 2.55a2.245 2.245 0 0 1 -1.969 1.166zm-4.944-8.766 1.332.729a7.256 7.256 0 0 1 2.884 2.884l.728 1.333.729-1.333a7.262 7.262 0 0 1 2.881-2.884l1.332-.729-1.332-.727a7.258 7.258 0 0 1 -2.884-2.885l-.728-1.332-.729 1.332a7.252 7.252 0 0 1 -2.884 2.885z"/><path d="m106.439 119.264a4.077 4.077 0 0 1 -.676-.059c-2.305-.39-2.631-3.514-3.01-7.131-.1-.963-.242-2.325-.441-3.35-.2 1.025-.34 2.387-.441 3.349-.379 3.618-.706 6.742-3.01 7.132-3.426.576-4.187-3.169-4.8-6.178a18.99 18.99 0 0 0 -1.578-5.214c-2.542-4.518-5.006-10.874-2.312-15.5 2.185-3.749 7.194-4.17 10.774-2.414a3.122 3.122 0 0 0 2.73 0c3.581-1.757 8.591-1.336 10.775 2.412 2.7 4.623.23 10.979-2.311 15.5a18.939 18.939 0 0 0 -1.578 5.215c-.57 2.801-1.27 6.238-4.122 6.238zm-4.127-14.718c2.67 0 3.037 3.5 3.425 7.216a21.693 21.693 0 0 0 .742 4.442c.457-.408.9-2.581 1.143-3.775a21.072 21.072 0 0 1 1.9-6.086c1.767-3.141 4.418-8.943 2.335-12.516-1.287-2.209-4.564-2.358-6.86-1.231a6.139 6.139 0 0 1 -5.375 0c-2.3-1.128-5.572-.978-6.86 1.231-2.083 3.574.569 9.376 2.336 12.516a21.1 21.1 0 0 1 1.9 6.085c.243 1.2.686 3.366 1.144 3.776a21.767 21.767 0 0 0 .743-4.443c.39-3.71.758-7.215 3.427-7.215z"/><path d="m121.15 85.963a24.659 24.659 0 0 0 -17.658-8.272 24.243 24.243 0 0 0 -15.341 4.8 30.118 30.118 0 0 0 3.486-6.752 8.265 8.265 0 0 0 1.374.117 9.315 9.315 0 0 0 3.84-.856 11.76 11.76 0 0 0 6.037-6.451c1.531-4.071.821-7.929-1.748-10.183a62.479 62.479 0 0 0 1.858-7.9 6.063 6.063 0 0 0 3.065-1.828 10.584 10.584 0 0 0 2.434-7.892c-1.312-18.491-21.176-39.988-44.815-39.988-23.587 0-43.409 21.5-44.721 39.988a10.589 10.589 0 0 0 2.431 7.894 6.058 6.058 0 0 0 3.08 1.831 65.36 65.36 0 0 0 1.858 7.892c-2.583 2.269-3.29 6.122-1.761 10.186a11.761 11.761 0 0 0 6.038 6.451 9.318 9.318 0 0 0 3.84.858 8.233 8.233 0 0 0 1.389-.119c4.164 11.367 13.464 16.448 18.348 18.396-.446 4.362-1.724 4.685-3.751 5.187a14.765 14.765 0 0 0 -1.916.573 78.036 78.036 0 0 0 -8.862 4.1 64.678 64.678 0 0 0 -9.647 6.4 5.945 5.945 0 0 0 .791 9.758c5.829 3.337 16.272 7.316 32.925 7.316 11.578 0 20.146-1.926 26.266-4.22a24.377 24.377 0 0 0 12.774 3.564c.271 0 .544 0 .817-.013a24.568 24.568 0 0 0 17.569-40.84zm-21.072-18.463a8.821 8.821 0 0 1 -4.466 4.773 6.178 6.178 0 0 1 -3.068.571c.454-1.814.873-4.069 1.1-5.589a5.7 5.7 0 0 1 3.665-1.518 1.5 1.5 0 0 0 .113-3 8.43 8.43 0 0 0 -3.347.708c.121-1.3.227-2.694.316-4.129a6.223 6.223 0 0 1 4.157.847c2.152 1.323 2.735 4.137 1.53 7.337zm-5.443-18.643a13.774 13.774 0 0 0 5.308 1.632c-.35 1.876-.892 4.489-1.449 6.32a9.491 9.491 0 0 0 -3.95-.512c.106-2.538.145-5.097.091-7.44zm-69-1.254a2.866 2.866 0 0 1 -2.048-1.003 7.687 7.687 0 0 1 -1.634-5.636c1.222-17.2 19.716-37.2 41.729-37.2 22.066 0 40.6 20 41.823 37.2a7.681 7.681 0 0 1 -1.638 5.633 2.865 2.865 0 0 1 -2.047 1.003h-.1c-3.27-.026-6.1-1.138-7.573-2.992a5.42 5.42 0 0 1 -1.177-2.534 1.5 1.5 0 0 0 -2.97.389 2.966 2.966 0 0 1 -.895 2.161c-1.027.921-2.967 1.147-5.626.648a7.567 7.567 0 0 1 -6.447-6.122c-.029-.164-.075-.471-.092-.537a1.5 1.5 0 0 0 -2.94.369 2.68 2.68 0 0 1 -.96 1.806c-2.141 2.124-7 3.639-9.286 3.639h-.04c-2.226.022-7.137-1.5-9.289-3.638a2.681 2.681 0 0 1 -.961-1.807 1.5 1.5 0 0 0 -2.89-.546c-.047.12-.125.613-.178.869a7.567 7.567 0 0 1 -6.419 5.967c-2.635.5-4.572.277-5.608-.629a2.934 2.934 0 0 1 -.924-2.183 1.5 1.5 0 0 0 -2.971-.383 5.657 5.657 0 0 1 -1.174 2.559c-1.48 1.832-4.313 2.94-7.661 2.964zm7.277 8.697a9.468 9.468 0 0 0 -3.937.5c-.554-1.831-1.1-4.439-1.45-6.312a13.847 13.847 0 0 0 5.3-1.632c-.057 2.344-.019 4.902.087 7.444zm-1.066 15.971a8.822 8.822 0 0 1 -4.467-4.771c-1.2-3.2-.616-6.009 1.564-7.35a6.172 6.172 0 0 1 4.128-.828c.084 1.351.182 2.671.294 3.9a8.12 8.12 0 0 0 -2.783-.484 1.5 1.5 0 0 0 .056 3h.062a5.693 5.693 0 0 1 3.05 1c.2 1.486.662 4.077 1.171 6.106a6.184 6.184 0 0 1 -3.075-.573zm6.361 1.208a51.521 51.521 0 0 1 -1.5-7.235 122.759 122.759 0 0 1 -.78-19.817 5.08 5.08 0 0 0 .416.429c1.775 1.592 4.531 2.05 8.181 1.366a10.724 10.724 0 0 0 7.723-5.37c.022.022.04.045.063.067 2.83 2.808 8.5 4.508 11.346 4.508h.113c2.874 0 8.551-1.7 11.382-4.509.022-.022.041-.044.062-.066a10.724 10.724 0 0 0 7.721 5.37c3.658.684 6.407.226 8.179-1.366a5.024 5.024 0 0 0 .419-.435 122.748 122.748 0 0 1 -.779 19.824 51.459 51.459 0 0 1 -1.5 7.247 26.987 26.987 0 0 1 -6.853 11.208l-2.472-.746a2.6 2.6 0 0 0 -2.962 3.866l.494.794a31.69 31.69 0 0 1 -6.317 3.121 22.84 22.84 0 0 1 -7.414 1.433 22.845 22.845 0 0 1 -7.418-1.435c-4.178-1.479-14.305-6.222-18.104-18.254zm40.119 26.2c-.439-.141-.87-.262-1.26-.359-2.03-.5-3.309-.825-3.753-5.2a35.439 35.439 0 0 0 5.729-2.96l.553.887a1.751 1.751 0 0 1 .155 1.55 24.429 24.429 0 0 0 -1.424 6.084zm-28.708 3.005a11.972 11.972 0 0 1 1.535-.452c2.883-.714 5.177-1.746 5.924-7.114a24.565 24.565 0 0 0 6.652 1.049 24.6 24.6 0 0 0 6.692-1.061c.744 5.378 3.04 6.412 5.925 7.126a11.972 11.972 0 0 1 1.535.452c.11.043.214.087.32.131.016.57.046 1.139.1 1.705-8.052 8.9-22.865 10.424-31.061 7.26-2.046-.79-5.318-2.55-5.162-5.667a76.531 76.531 0 0 1 7.54-3.427zm14.106 21.786c-15.994 0-25.922-3.763-31.434-6.919a2.944 2.944 0 0 1 -.386-4.83 58.852 58.852 0 0 1 7.294-5.018c.565 2.908 2.981 5.339 6.961 6.876a28.541 28.541 0 0 0 10.083 1.668c7.7 0 16.5-2.453 22.677-8.094a24.652 24.652 0 0 0 6.481 11.486c.524.522 1.069 1.014 1.628 1.482a73.928 73.928 0 0 1 -23.304 3.351zm60.5-20.2a21.572 21.572 0 1 1 -41.676-9.6 4.667 4.667 0 0 0 -.356-4.119l-1.845-2.965a.2.2 0 0 1 .227-.3l2.375.714a4.814 4.814 0 0 0 4.751-1.187 21.565 21.565 0 0 1 36.531 17.457z"/><path d="m65.918 63.6a1.5 1.5 0 0 1 -1.28-.718 1.388 1.388 0 0 0 -1.267 0 1.5 1.5 0 0 1 -2.78-.782c0-1.949 2.736-2.371 3.413-2.371 1.069 0 3.414.6 3.414 2.371a1.5 1.5 0 0 1 -1.5 1.5z"/><path d="m101.613 102.672a3.331 3.331 0 0 1 -2.323-.94l-.774-.75a1.5 1.5 0 0 1 2.088-2.154l.774.75a.337.337 0 0 0 .463.007l3.345-3.057a1.5 1.5 0 0 1 2.024 2.215l-3.346 3.057a3.328 3.328 0 0 1 -2.251.872z"/></svg>