<svg id="Capa_1" enable-background="new 0 0 511.995 511.995" height="512" viewBox="0 0 511.995 511.995" width="512" xmlns="http://www.w3.org/2000/svg"><g><path d="m7.526 315.586c.942 0 1.899-.179 2.825-.556 34.732-14.138 78.963-15.169 109.512-2.882.58 11.836 2.552 43.757 8.082 76.521 9.825 58.205 25.393 87.579 47.595 89.8 19.553 1.594 35.842-14.564 50.156-46.733 11.106-25.139 18.518-54.982 21.948-70.534.016-.074.031-.148.045-.222 1.12-5.924 7.114-6.226 8.31-6.226h.002c1.191 0 7.189.302 8.305 6.222.014.076.03.151.046.226 2.142 9.712 5.739 24.589 10.713 40.313 1.25 3.949 5.461 6.138 9.413 4.889 3.949-1.25 6.138-5.464 4.889-9.413-4.79-15.14-8.266-29.501-10.345-38.917-2.125-10.96-11.359-18.317-23.019-18.32-.002 0-.004 0-.006 0-11.658 0-20.895 7.356-23.024 18.319-14.573 66.019-36.542 107.406-55.941 105.47-8.754-.876-15.671-12.931-19.933-22.889-5.652-13.209-10.478-31.497-14.343-54.354-6.675-39.479-8.097-79.049-8.11-79.445-.063-.425.002-.875-.444-2.299l-21.182-58.431c-7.477-20.294-5.825-43.206 3.58-62.442.017 16.534 1.44 41.166 7.734 58.434 5.2 14.081 19.934 58.204 22.342 65.427.251 5.993 1.67 35.457 6.383 67.113 6.415 43.188 14.617 62.691 20.367 71.448 2.451 2.594 5.495 5.239 11.147 1.58 16.089-13.777 34.128-76.682 36.686-92.195 3.306-16.33 17.581-27.729 34.738-27.729 17.156 0 31.429 11.397 34.737 27.725 1.383 8.362 6.438 27.405 13.18 46.587 8.487 24.144 16.391 39.485 23.491 45.6 1.692 1.804 7.957 3.094 11.163-1.566 10.966-16.698 17.468-51.932 20.367-71.446 4.673-31.393 6.122-61.01 6.381-67.075l22.377-65.558c5.306-14.451 6.975-39.644 7.446-49.819.144-3.113.245-5.966.309-8.596 9.504 19.192 11.077 41.869 3.512 62.551l-21.167 58.394c-.088.389-.326.756-.445 2.299-.014.396-1.435 39.966-8.11 79.445-3.865 22.857-8.69 41.145-14.343 54.354-4.261 9.958-11.178 22.013-19.932 22.889-7.589.766-19.545-4.625-33.455-34.582-1.745-3.757-6.204-5.387-9.961-3.645-3.757 1.745-5.389 6.204-3.645 9.961 13.363 28.782 28.679 43.342 45.569 43.341.989 0 1.984-.05 2.984-.15 22.201-2.221 37.769-31.595 47.594-89.8 5.536-32.795 7.506-64.747 8.084-76.555 30.065-12.293 74.297-11.245 109.539 2.928.917.369 1.865.544 2.796.544 2.971 0 5.784-1.778 6.96-4.703 1.546-3.843-.316-8.211-4.159-9.757-18.707-7.524-40.996-11.949-62.762-12.461-17.013-.397-32.988 1.571-47.075 5.724l15.621-43.094c12.438-34.004 4.08-72.568-21.26-98.404-.131-.144-.257-.272-.373-.39-.001-.001-.001-.001-.002-.002s-.001-.001-.002-.002c0 0-.001-.001-.001-.001-17.677-17.898-42.238-28.164-67.386-28.164-9.541 0-19.001 1.439-28.117 4.278l-42.145 13.119c-3.955 1.231-6.163 5.435-4.932 9.39s5.434 6.165 9.39 4.932l42.146-13.119c7.671-2.389 15.631-3.6 23.658-3.6 20.675 0 40.864 8.263 55.669 22.699 1.734 9.053.936 55.817-6.11 74.89-.021.059-.042.117-.063.176l-22.657 66.378c-8.101 17.681-21.682 43.689-46.731 43.971-6.462-20.668-25.558-34.685-48.141-34.685-22.877 0-42.174 14.385-48.386 35.495-4.253 1.114-9.202 2.111-14.838.942 12.071-122.884 19.731-165.42 49.627-241.377l15.263-.939c9.156-.563 17.336-5.656 21.882-13.623l29.922-52.432c4.518-7.917 1.752-18.034-6.165-22.552l-28.217-16.106c-7.917-4.518-18.035-1.753-22.552 6.165l-29.921 52.431c-4.547 7.967-4.771 17.601-.599 25.77l7.187 14.074c-2.284 4.711-6.442 14-11.505 28.502-33.642-11.208-72.098-2.313-97.188 23.46-25.678 25.847-34.142 64.588-21.573 98.704l15.679 43.253c-32.982-9.53-75.759-7.294-109.916 6.61-3.836 1.562-5.681 5.938-4.119 9.774 1.184 2.91 3.989 4.673 6.949 4.673zm336.573 56.868c-4.261 28.679-9.231 45.599-13.083 55.296-8.779-15.806-18.941-46.744-23.5-65.377 16.259-1.147 29.701-10.286 40.661-24.298-.944 10.275-2.26 22.168-4.078 34.379zm-163.132 55.266c-3.851-9.703-8.815-26.617-13.071-55.268-1.244-8.354-2.252-16.55-3.067-24.18 8.835 10.678 22.74 18.544 39.154 16.039-4.769 18.647-14.6 48.14-23.016 63.409zm85.551-341.896c-2.031 3.559-5.686 5.834-9.775 6.086l-14.682.903-6.69-13.1c-1.864-3.649-1.764-7.953.268-11.512l3.418-5.99 30.88 17.623zm-.959-70.054c.419-.734 1.357-.99 2.091-.572l28.218 16.104c.734.419.991 1.357.572 2.091l-19.069 33.413-30.88-17.623zm-53.936 127.162 1.369.426c-11.959 38.271-26.807 101.972-34.611 197.559-8.997-9.169-14.782-25.111-17.137-37.102-.696-2.091-17.113-51.389-22.838-66.893-8.291-22.45-7.254-65.671-5.796-75.216 20.972-20.262 51.061-27.465 79.013-18.774z"/><path d="m504.472 496.995h-496.949c-4.142 0-7.5 3.358-7.5 7.5s3.358 7.5 7.5 7.5h496.949c4.142 0 7.5-3.358 7.5-7.5s-3.358-7.5-7.5-7.5z"/><ellipse cx="451.792" cy="364.397" rx="7.478" ry="7.478" transform="matrix(.383 -.924 .924 .383 -57.761 642.35)"/><circle cx="73.444" cy="459.336" r="7.478"/><circle cx="48.828" cy="430.802" r="7.478"/></g></svg>