<?xml version="1.0" encoding="UTF-8" standalone="no"?>
<!-- Created with Inkscape (http://www.inkscape.org/) -->

<svg
   version="1.1"
   id="svg1188"
   xml:space="preserve"
   width="682.66669"
   height="682.66669"
   viewBox="0 0 682.66669 682.66669"
   xmlns="http://www.w3.org/2000/svg"
   xmlns:svg="http://www.w3.org/2000/svg"><defs
     id="defs1192"><clipPath
       clipPathUnits="userSpaceOnUse"
       id="clipPath1202"><path
         d="M 0,512 H 512 V 0 H 0 Z"
         id="path1200" /></clipPath></defs><g
     id="g1194"
     transform="matrix(1.3333333,0,0,-1.3333333,0,682.66667)"><g
       id="g1196"><g
         id="g1198"
         clip-path="url(#clipPath1202)"><g
           id="g1204"
           transform="translate(64.7383,307.4067)"><path
             d="m 0,0 c 23.452,-44.77 59.266,-72.572 93.607,-89.809 54.881,-27.546 113.948,-31.023 169.764,-10.464 l 1.015,0.371"
             style="fill:none;stroke:#000000;stroke-width:15;stroke-linecap:round;stroke-linejoin:round;stroke-miterlimit:10;stroke-dasharray:none;stroke-opacity:1"
             id="path1206" /></g><g
           id="g1208"
           transform="translate(360.6313,222.062)"><path
             d="M 0,0 C 31.577,17.451 63.554,44.213 85.09,85.18"
             style="fill:none;stroke:#000000;stroke-width:15;stroke-linecap:round;stroke-linejoin:round;stroke-miterlimit:10;stroke-dasharray:none;stroke-opacity:1"
             id="path1210" /></g><g
           id="g1212"
           transform="translate(7.3936,314.4766)"><path
             d="m 0,0 c 8.57,-10.299 17.203,-20.524 25.856,-30.726 43.418,-51.195 85.648,-101.553 142.232,-132.079 54.345,-29.32 106.551,-29.394 161.038,0.001 56.583,30.525 98.813,80.883 142.231,132.078 8.653,10.202 17.286,20.427 25.856,30.726"
             style="fill:none;stroke:#000000;stroke-width:15;stroke-linecap:round;stroke-linejoin:round;stroke-miterlimit:10;stroke-dasharray:none;stroke-opacity:1"
             id="path1214" /></g><g
           id="g1216"
           transform="translate(207.1187,297.2231)"><path
             d="m 0,0 v -33.263 c 0,-5.275 4.276,-9.552 9.552,-9.552 h 29.569 c 5.275,0 9.552,4.277 9.552,9.552 v 32.284"
             style="fill:none;stroke:#000000;stroke-width:15;stroke-linecap:round;stroke-linejoin:round;stroke-miterlimit:10;stroke-dasharray:none;stroke-opacity:1"
             id="path1218" /></g><g
           id="g1220"
           transform="translate(255.8682,296.2446)"><path
             d="m 0,0 v -32.284 c 0,-5.276 4.277,-9.552 9.552,-9.552 h 29.57 c 5.275,0 9.551,4.276 9.551,9.552 V 0.979"
             style="fill:none;stroke:#000000;stroke-width:15;stroke-linecap:round;stroke-linejoin:round;stroke-miterlimit:10;stroke-dasharray:none;stroke-opacity:1"
             id="path1222" /></g><g
           id="g1224"
           transform="translate(304.8813,297.2231)"><path
             d="m 0,0 v -34.581 c 0,-4.547 3.687,-8.234 8.234,-8.234 h 25.488 c 4.547,0 8.233,3.687 8.233,8.234 V 1.938"
             style="fill:none;stroke:#000000;stroke-width:15;stroke-linecap:round;stroke-linejoin:round;stroke-miterlimit:10;stroke-dasharray:none;stroke-opacity:1"
             id="path1226" /></g><g
           id="g1228"
           transform="translate(346.8364,299.1616)"><path
             d="m 0,0 v -22.513 c 0,-4.302 3.488,-7.79 7.79,-7.79 h 24.115 c 4.303,0 7.791,3.488 7.791,7.79 V 2.673"
             style="fill:none;stroke:#000000;stroke-width:15;stroke-linecap:round;stroke-linejoin:round;stroke-miterlimit:10;stroke-dasharray:none;stroke-opacity:1"
             id="path1230" /></g><g
           id="g1232"
           transform="translate(207.1187,297.2231)"><path
             d="m 0,0 v -34.581 c 0,-4.547 -3.687,-8.234 -8.234,-8.234 h -25.488 c -4.547,0 -8.233,3.687 -8.233,8.234 V 1.938"
             style="fill:none;stroke:#000000;stroke-width:15;stroke-linecap:round;stroke-linejoin:round;stroke-miterlimit:10;stroke-dasharray:none;stroke-opacity:1"
             id="path1234" /></g><g
           id="g1236"
           transform="translate(165.1636,299.1611)"><path
             d="m 0,0 v -22.512 c 0,-4.302 -3.488,-7.79 -7.79,-7.79 h -24.115 c -4.303,0 -7.791,3.488 -7.791,7.79 V 2.674"
             style="fill:none;stroke:#000000;stroke-width:15;stroke-linecap:round;stroke-linejoin:round;stroke-miterlimit:10;stroke-dasharray:none;stroke-opacity:1"
             id="path1238" /></g><g
           id="g1240"
           transform="translate(164.7187,393.2427)"><path
             d="m 0,0 c 31.118,11.366 62.908,13.416 91.281,-11.276 55.408,48.219 123.847,-5.545 174.861,-31.508 24.371,-12.404 49.163,-23.862 73.642,-36.025 0,0 -117.95,-17.584 -248.399,-18.188 v -0.002 c -0.034,0 -0.069,10e-4 -0.104,10e-4 -0.034,0 -0.069,-10e-4 -0.104,-10e-4 v 0.002 c -130.449,0.604 -248.398,18.188 -248.398,18.188 24.479,12.163 49.27,23.621 73.641,36.025 15.581,7.93 32.787,18.452 50.751,27.871 l 1.519,0.793"
             style="fill:none;stroke:#000000;stroke-width:15;stroke-linecap:round;stroke-linejoin:round;stroke-miterlimit:10;stroke-dasharray:none;stroke-opacity:1"
             id="path1242" /></g><g
           id="g1244"
           transform="translate(419.8423,148.8564)"><path
             d="m 0,0 c -3.244,-6.879 -12.639,-23.678 -29.195,-29.393 -1.283,-0.443 -1.283,-2.268 0,-2.711 16.556,-5.714 25.951,-22.513 29.195,-29.392 0.519,-1.101 2.086,-1.101 2.605,0 3.244,6.879 12.639,23.678 29.195,29.392 1.283,0.443 1.283,2.268 0,2.711 C 15.244,-23.678 5.849,-6.879 2.605,0 2.086,1.1 0.519,1.1 0,0 Z"
             style="fill:none;stroke:#000000;stroke-width:15;stroke-linecap:round;stroke-linejoin:round;stroke-miterlimit:10;stroke-dasharray:none;stroke-opacity:1"
             id="path1246" /></g><g
           id="g1248"
           transform="translate(100.9312,493.1401)"><path
             d="m 0,0 c -4.468,-9.475 -17.408,-32.613 -40.211,-40.483 -1.768,-0.61 -1.768,-3.124 0,-3.734 22.803,-7.87 35.743,-31.009 40.211,-40.483 0.715,-1.516 2.873,-1.516 3.588,0 4.468,9.474 17.408,32.613 40.211,40.483 1.767,0.61 1.767,3.124 0,3.734 C 20.996,-32.613 8.056,-9.475 3.588,0 2.873,1.516 0.715,1.516 0,0 Z"
             style="fill:none;stroke:#000000;stroke-width:15;stroke-linecap:round;stroke-linejoin:round;stroke-miterlimit:10;stroke-dasharray:none;stroke-opacity:1"
             id="path1250" /></g><g
           id="g1252"
           transform="translate(346.0356,103.5601)"><path
             d="m 0,0 c -4.468,-9.475 -17.408,-32.613 -40.211,-40.483 -1.768,-0.61 -1.768,-3.124 0,-3.734 22.803,-7.87 35.743,-31.009 40.211,-40.483 0.714,-1.516 2.873,-1.516 3.588,0 4.468,9.474 17.408,32.613 40.211,40.483 1.767,0.61 1.767,3.124 0,3.734 C 20.996,-32.613 8.056,-9.475 3.588,0 2.873,1.516 0.714,1.516 0,0 Z"
             style="fill:none;stroke:#000000;stroke-width:15;stroke-linecap:round;stroke-linejoin:round;stroke-miterlimit:10;stroke-dasharray:none;stroke-opacity:1"
             id="path1254" /></g></g></g></g></svg>
